#!OML:ASF F:\VICON\USERDATA\INSTALL\rory3\rory3.ASF
:FULLY-SPECIFIED
:DEGREES
213
root -2.49747 17.8665 5.28036 2.26919 -50.8828 -2.57595
lowerback 9.13286 2.71044 2.36408
upperback 0.140164 3.87268 0.54095
thorax -4.85186 1.85891 -1.26861
lowerneck -19.9544 -4.69607 -10.2692
upperneck 26.5368 -5.81161 7.86631
head 12.6992 -2.65426 3.77123
rclavicle -6.97983e-014 7.95139e-015
rhumerus -32.2105 -13.1083 -77.2284
rradius 34.1167
rwrist 8.6851
rhand -12.803 10.5147
rfingers 7.12502
rthumb 13.2831 -19.042
lclavicle -6.97983e-014 7.95139e-015
lhumerus -38.761 12.0268 77.9379
lradius 31.4146
lwrist -9.94566
lhand -16.4077 25.4066
lfingers 7.12502
lthumb 9.80687 55.1583
rfemur 10.6664 5.14255 26.9728
rtibia 24.7306
rfoot -13.9895 -0.44218
rtoes -0.908838
lfemur -18.1886 -1.97509 -18.2004
ltibia 9.91174
lfoot 0.91458 -0.584082
ltoes -10.2128
214
root -2.6083 17.8835 5.40329 1.4834 -50.4318 -1.6137
lowerback 9.02598 2.58846 1.86109
upperback 0.182452 3.64427 0.323415
thorax -4.77238 1.75752 -1.17793
lowerneck -20.0941 -4.70462 -10.151
upperneck 26.6602 -5.85602 7.85546
head 12.7779 -2.66141 3.74134
rclavicle 1.54642e-013 -7.45443e-015
rhumerus -32.3185 -13.888 -77.0976
rradius 33.6822
rwrist 8.89057
rhand -12.8519 10.2855
rfingers 7.12502
rthumb 13.2359 -19.2743
lclavicle 1.54642e-013 -7.45443e-015
lhumerus -38.6044 12.3507 77.6926
lradius 30.9669
lwrist -10.0682
lhand -16.2988 25.2716
lfingers 7.12502
lthumb 9.91194 55.0182
rfemur 10.4579 4.94877 26.3457
rtibia 26.1691
rfoot -12.9965 -0.435918
rtoes -1.41054
lfemur -17.5903 -2.24049 -18.9897
ltibia 9.76076
lfoot 1.35659 -0.605061
ltoes -7.95915
215
root -2.71715 17.8989 5.52992 0.958549 -49.9525 -1.11972
lowerback 9.02021 2.45693 1.72245
upperback 0.247202 3.44595 0.167597
thorax -4.70584 1.66237 -1.23484
lowerneck -20.1962 -4.69744 -10.063
upperneck 26.7298 -5.89381 7.92832
head 12.8305 -2.658 3.74969
rclavicle -2.24751e-014 1.2921e-015
rhumerus -32.554 -14.7082 -76.952
rradius 33.3982
rwrist 9.12565
rhand -12.97 9.65154
rfingers 7.12502
rthumb 13.1221 -19.9156
lclavicle -2.24751e-014 1.2921e-015
lhumerus -38.5266 12.8918 77.2447
lradius 30.6367
lwrist -10.9909
lhand -15.9346 24.7073
lfingers 7.12502
lthumb 10.2633 54.4369
rfemur 10.2591 4.58996 25.9815
rtibia 27.6992
rfoot -11.767 -0.149491
rtoes -1.64033
lfemur -16.9001 -2.5008 -19.4483
ltibia 9.58998
lfoot 1.63825 -0.991744
ltoes -4.89331
216
root -2.82668 17.9194 5.66282 0.595603 -49.4717 -0.808914
lowerback 8.96247 2.34919 1.69636
upperback 0.305549 3.2928 0.0644728
thorax -4.61251 1.5879 -1.30341
lowerneck -20.2565 -4.73925 -9.91921
upperneck 26.7344 -5.98241 7.8776
head 12.8476 -2.68718 3.68901
rclavicle 4.48322e-014 5.96354e-015
rhumerus -32.8104 -15.6144 -76.7078
rradius 33.0605
rwrist 9.53898
rhand -13.0214 9.25283
rfingers 7.12502
rthumb 13.0726 -20.3175
lclavicle 4.48322e-014 5.96354e-015
lhumerus -38.4461 13.0766 77.0404
lradius 30.2965
lwrist -11.7306
lhand -15.8066 24.7659
lfingers 7.12502
lthumb 10.3867 54.4893
rfemur 9.96584 4.14154 25.669
rtibia 29.3383
rfoot -10.4521 0.178964
rtoes -1.49406
lfemur -16.1864 -2.77121 -19.8325
ltibia 9.4017
lfoot 1.90713 -1.57355
ltoes -3.10656
217
root -2.93633 17.9429 5.79672 0.304666 -49.3079 -0.517339
lowerback 8.87114 2.33902 1.59484
upperback 0.332663 3.26447 0.0115993
thorax -4.53644 1.57688 -1.29275
lowerneck -20.2869 -4.76299 -9.7777
upperneck 26.7065 -6.00838 7.71395
head 12.8341 -2.7039 3.59454
rclavicle 2.48481e-015 -4.47266e-015
rhumerus -33.0897 -16.2661 -76.4466
rradius 32.7456
rwrist 9.75176
rhand -12.9834 9.09417
rfingers 7.12502
rthumb 13.1092 -20.4738
lclavicle 2.48481e-015 -4.47266e-015
lhumerus -38.4037 13.0865 77.015
lradius 30.0017
lwrist -12.1712
lhand -15.4992 25.3269
lfingers 7.12502
lthumb 10.6832 55.0353
rfemur 9.46724 3.85842 25.2709
rtibia 31.1335
rfoot -8.91081 0.559959
rtoes 0.0740969
lfemur -15.4141 -2.73913 -20.2692
ltibia 9.2104
lfoot 2.01091 -2.28414
ltoes -3.54485
218
root -3.04087 17.9622 5.93294 0.0157947 -48.8593 -0.265493
lowerback 8.83322 2.2136 1.53457
upperback 0.318468 3.09237 0.032572
thorax -4.53967 1.4933 -1.21489
lowerneck -20.2547 -4.74052 -9.79028
upperneck 26.7848 -5.94521 7.60065
head 12.8487 -2.69376 3.56538
rclavicle -1.46107e-014 4.07509e-015
rhumerus -33.5695 -16.4319 -76.1625
rradius 32.6711
rwrist 9.67636
rhand -12.8972 8.87504
rfingers 7.12502
rthumb 13.1923 -20.6876
lclavicle -1.46107e-014 4.07509e-015
lhumerus -38.5911 13.2128 77.0507
lradius 29.9206
lwrist -12.3101
lhand -15.0956 25.5652
lfingers 7.12502
lthumb 11.0726 55.2532
rfemur 8.88877 3.284 24.8864
rtibia 33.0974
rfoot -7.19092 0.837997
rtoes 2.74664
lfemur -14.6032 -2.96783 -20.6162
ltibia 8.89362
lfoot 2.17813 -3.06646
ltoes -2.60962
219
root -3.14415 17.9802 6.06145 -0.207903 -48.7226 -0.0585247
lowerback 8.83611 2.2007 1.32122
upperback 0.273423 3.06057 0.155428
thorax -4.60718 1.48245 -0.965841
lowerneck -20.1731 -4.77705 -10.0856
upperneck 26.8882 -5.92063 7.62643
head 12.8837 -2.7135 3.6335
rclavicle 2.93083e-014 3.37934e-015
rhumerus -34.0893 -16.3015 -75.8337
rradius 32.6915
rwrist 9.39456
rhand -12.6369 8.67447
rfingers 7.12502
rthumb 13.4432 -20.8717
lclavicle 2.93083e-014 3.37934e-015
lhumerus -38.7281 13.282 77.2836
lradius 29.7133
lwrist -12.2423
lhand -15.1855 25.2948
lfingers 7.12502
lthumb 10.9858 54.9873
rfemur 8.12445 2.86556 24.4784
rtibia 35.2236
rfoot -5.11073 1.23886
rtoes 4.84418
lfemur -13.7675 -2.86794 -20.8857
ltibia 8.43232
lfoot 2.48991 -3.74617
ltoes -0.867498
220
root -3.24934 17.9945 6.1917 -0.43291 -48.698 0.14323
lowerback 8.77363 2.22732 1.20438
upperback 0.270373 3.0852 0.190274
thorax -4.58285 1.4979 -0.864775
lowerneck -19.9952 -4.82898 -10.2703
upperneck 26.8176 -5.97109 7.70316
head 12.8341 -2.74839 3.68583
rclavicle -6.97113e-014 1.53064e-014
rhumerus -34.4836 -16.3876 -75.6194
rradius 32.5835
rwrist 9.19201
rhand -12.3768 8.71539
rfingers 7.12502
rthumb 13.6939 -20.8141
lclavicle -6.97113e-014 1.53064e-014
lhumerus -38.6521 12.724 77.665
lradius 29.4406
lwrist -11.8849
lhand -14.9494 25.3275
lfingers 7.12502
lthumb 11.2136 55.0078
rfemur 7.20065 2.41876 24.0404
rtibia 37.452
rfoot -2.71528 1.76109
rtoes 4.88781
lfemur -12.853 -2.66483 -21.1919
ltibia 7.93631
lfoot 2.65324 -4.31095
ltoes -1.42424
221
root -3.35396 18.0055 6.32257 -0.799046 -48.6349 0.48536
lowerback 8.70316 2.22781 1.159
upperback 0.33523 3.07328 0.0606243
thorax -4.47111 1.49314 -0.96722
lowerneck -20.0078 -4.85948 -10.1801
upperneck 26.7962 -6.05731 7.74494
head 12.8357 -2.77113 3.671
rclavicle -2.67241e-014 -1.39149e-015
rhumerus -34.6956 -16.8959 -75.5357
rradius 32.284
rwrist 9.40685
rhand -12.2912 8.89325
rfingers 7.12502
rthumb 13.7763 -20.6306
lclavicle -2.67241e-014 -1.39149e-015
lhumerus -38.4822 12 77.8996
lradius 29.3547
lwrist -11.498
lhand -13.7242 26.0086
lfingers 7.12502
lthumb 12.395 55.6211
rfemur 6.21782 1.97778 23.5013
rtibia 39.7531
rfoot -0.283073 2.253
rtoes 4.27078
lfemur -11.9075 -2.49277 -21.5817
ltibia 7.42097
lfoot 2.78205 -4.49703
ltoes -1.28179
222
root -3.45598 18.013 6.45256 -1.3457 -48.4332 0.993678
lowerback 8.71576 2.12663 1.09674
upperback 0.426075 2.92056 -0.168023
thorax -4.37792 1.41784 -1.14869
lowerneck -20.1391 -4.83156 -10.0156
upperneck 26.8295 -6.08652 7.81971
head 12.8756 -2.7547 3.66721
rclavicle -5.03174e-015 7.95139e-016
rhumerus -34.8277 -17.2077 -75.6746
rradius 32.0545
rwrist 9.55552
rhand -12.0809 8.86789
rfingers 7.12502
rthumb 13.979 -20.6421
lclavicle -5.03174e-015 7.95139e-016
lhumerus -38.3565 11.7222 77.8061
lradius 29.4143
lwrist -11.4892
lhand -12.5805 26.4744
lfingers 7.12502
lthumb 13.4976 56.017
rfemur 5.27043 1.4578 22.8097
rtibia 42.0935
rfoot 1.92802 2.80061
rtoes 4.9636
lfemur -10.8437 -2.44465 -22.0642
ltibia 6.70309
lfoot 3.00171 -4.39094
ltoes -0.589964
223
root -3.55779 18.0227 6.57417 -1.74998 -48.4528 1.43893
lowerback 8.72853 2.12559 0.914028
upperback 0.465621 2.89405 -0.310506
thorax -4.34613 1.40738 -1.1903
lowerneck -20.1413 -4.83161 -9.98372
upperneck 26.7228 -6.12887 7.94524
head 12.8408 -2.75262 3.7011
rclavicle 6.99349e-014 -1.59028e-015
rhumerus -35.0244 -17.1301 -75.8227
rradius 31.988
rwrist 9.47412
rhand -11.7703 8.74437
rfingers 7.12502
rthumb 14.2784 -20.7447
lclavicle 6.99349e-014 -1.59028e-015
lhumerus -38.261 11.4995 77.8187
lradius 29.4891
lwrist -11.7124
lhand -12.4244 26.3724
lfingers 7.12502
lthumb 13.648 55.905
rfemur 4.09664 1.09778 22.1718
rtibia 44.485
rfoot 4.07574 3.42734
rtoes 7.08224
lfemur -9.57143 -2.17717 -22.517
ltibia 5.41988
lfoot 3.36782 -4.2997
ltoes -2.77726
